HIERARCHY
ROOT Hip
{
  OFFSET 0.0 0.0 0.0
  CHANNELS 6 Xposition Yposition Zposition Xrotation Yrotation Zrotation
  JOINT LowerSpine
  {
    OFFSET 0.0 0.061367 -0.03653
    CHANNELS 3 Xrotation Yrotation Zrotation
    JOINT MiddleSpine
    {
      OFFSET 0.0 0.056002 0.002633
      CHANNELS 3 Xrotation Yrotation Zrotation
      JOINT Chest
      {
        OFFSET 0.0 0.069296 -0.013882
        CHANNELS 3 Xrotation Yrotation Zrotation
        JOINT Neck
        {
          OFFSET 0.0 0.156156 -0.002923
          CHANNELS 3 Xrotation Yrotation Zrotation
          JOINT Head
          {
            OFFSET 0.0 0.088183 0.023986
            CHANNELS 3 Xrotation Yrotation Zrotation
            End Site
            {
              OFFSET 1e-06 0.123215 0.003678
            }
          }
        }
        JOINT LClavicle
        {
          OFFSET 0.014189 0.150698 0.046467
          CHANNELS 3 Xrotation Yrotation Zrotation
          JOINT LShoulder
          {
            OFFSET 0.082893 0.021616 -0.034976
            CHANNELS 3 Xrotation Yrotation Zrotation
            JOINT LForearm
            {
              OFFSET 0.195645 -0.000695 -0.001695
              CHANNELS 3 Xrotation Yrotation Zrotation
              JOINT LHand
              {
                OFFSET 0.163209 0.000474 -0.000977
                CHANNELS 3 Xrotation Yrotation Zrotation
                End Site
                {
                  OFFSET 0.0 0.006864 0.0
                }
              }
            }
          }
        }
        JOINT RClavicle
        {
          OFFSET -0.014189 0.150698 0.046467
          CHANNELS 3 Xrotation Yrotation Zrotation
          JOINT RShoulder
          {
            OFFSET -0.082908 0.021619 -0.034982
            CHANNELS 3 Xrotation Yrotation Zrotation
            JOINT RForearm
            {
              OFFSET -0.195645 -0.000695 -0.001695
              CHANNELS 3 Xrotation Yrotation Zrotation
              JOINT RHand
              {
                OFFSET -0.163209 0.000474 -0.000977
                CHANNELS 3 Xrotation Yrotation Zrotation
                End Site
                {
                  OFFSET 0.0 0.006864 0.0
                }
              }
            }
          }
        }
      }
    }
  }
  JOINT RThigh
  {
    OFFSET -0.072558 0.02774 -0.005953
    CHANNELS 3 Xrotation Yrotation Zrotation
    JOINT RShin
    {
      OFFSET -0.005253 -0.285537 0.0
      CHANNELS 3 Xrotation Yrotation Zrotation
      JOINT RFoot
      {
        OFFSET 0.0 -0.28038 0.0
        CHANNELS 3 Xrotation Yrotation Zrotation
        JOINT RToe
        {
          OFFSET 0.0 -0.030816 0.064441
          CHANNELS 3 Xrotation Yrotation Zrotation
          End Site
          {
            OFFSET 0.0 0.0 0.043231
          }
        }
      }
    }
  }
  JOINT LThigh
  {
    OFFSET 0.072557 0.027741 -0.005953
    CHANNELS 3 Xrotation Yrotation Zrotation
    JOINT LShin
    {
      OFFSET 0.005253 -0.285539 0.0
      CHANNELS 3 Xrotation Yrotation Zrotation
      JOINT LFoot
      {
        OFFSET 0.0 -0.28038 0.0
        CHANNELS 3 Xrotation Yrotation Zrotation
        JOINT LToe
        {
          OFFSET 0.0 -0.030816 0.064441
          CHANNELS 3 Xrotation Yrotation Zrotation
          End Site
          {
            OFFSET 0.0 0.0 0.043231
          }
        }
      }
    }
  }
}
MOTION
Frames: 14
Frame Time: 0.03333333333333333
0.06176 0.488428 1.725119 162.892807 -57.377243 165.354721 10.107669 1.072715 -5.150417 -4.106473 -3.699387 1.508097 -3.710667 2.234173 11.097037 7.911533 1.849986 4.178057 -1.041934 3.063222 0.561981 -5.019168 3.33406 1.933427 19.915831 -22.045708 -59.339291 -155.02211 -51.642952 -173.697784 -2.353284 -1.677849 1.95731 -2.760931 6.401045 4.071658 8.566225 7.393823 49.896778 -169.422882 60.64476 177.447769 3.351038 1.189285 1.00546 -28.148773 -16.703613 -3.37735 55.113621 -10.67145 11.243912 -0.51934 -3.27282 2.535262 0.495036 -2.446678 -1.186229 -50.326656 5.655833 9.667881 62.495201 2.564239 -2.733385 2.216286 0.748188 -2.12716 -2.034222 2.158146 1.05065 
0.048871 0.492114 1.725148 163.147293 -55.076797 165.910004 10.121368 1.018965 -5.139268 -3.995323 -3.671347 1.307913 -3.621102 2.631676 10.50578 7.97768 1.837782 4.30259 -1.063895 3.099833 0.510281 -5.029676 3.369359 2.250187 19.278265 -22.381912 -58.250786 -154.9823 -50.574234 -173.655563 -2.396862 -1.696083 2.008877 -2.889067 6.240768 4.781958 9.380862 7.725036 50.273983 -167.839798 61.954025 177.077362 3.44349 1.168767 1.023896 -29.748995 -16.792627 -4.265907 56.364399 -10.676355 11.273067 -0.246723 -3.911891 2.379961 0.514832 -2.45414 -1.238426 -50.473507 6.314021 9.420516 61.509659 3.075805 -3.12175 1.958903 0.163825 -2.431065 -2.05412 2.218208 1.07982 
0.037692 0.495743 1.725148 163.366287 -53.36108 166.350357 10.214196 0.961203 -5.138145 -3.905985 -3.677027 1.188522 -3.680493 2.786844 9.924199 7.999777 1.81696 4.416788 -1.080064 3.095236 0.467658 -5.081541 3.230626 2.58497 18.12237 -22.905361 -56.990589 -155.364868 -49.657722 -173.596497 -2.421742 -1.703544 2.035834 -3.064849 6.090235 5.324831 10.097183 8.174782 50.801296 -166.869049 63.381035 176.988037 3.495928 1.136333 1.032006 -31.144499 -16.683638 -4.924788 57.101246 -10.497555 11.252594 -0.168871 -4.325328 2.230858 0.548712 -2.449514 -1.265508 -50.773132 6.714009 9.156249 60.935036 3.387701 -3.566489 1.566491 -0.285067 -2.680744 -2.050781 2.244586 1.097226 
0.026962 0.499803 1.723747 163.763489 -52.557831 166.930603 10.260101 0.86362 -5.009099 -3.820407 -3.639169 1.283817 -3.655608 2.856493 9.443028 7.976529 1.815128 4.453346 -1.057182 2.988418 0.425611 -5.126622 2.987396 2.855935 16.731609 -24.012611 -55.894665 -156.237289 -48.894562 -173.729477 -2.372615 -1.660988 2.009411 -3.357648 6.057937 5.483501 10.462036 8.9581 51.37579 -166.376434 65.134453 177.25029 3.422682 1.087311 1.011493 -32.040947 -16.172632 -5.317364 57.412903 -10.163386 11.107739 -0.319753 -4.414582 2.083632 0.541068 -2.377763 -1.236279 -50.606823 6.910638 8.849064 60.331814 3.344963 -3.973096 1.182109 -0.662656 -2.80557 -1.972426 2.193253 1.086268 
0.015514 0.504031 1.720035 164.430679 -52.6805 167.556046 10.255086 0.694031 -4.828837 -3.690053 -3.597246 1.456486 -3.613819 2.813881 8.93868 7.776731 1.777803 4.455986 -1.009031 2.816664 0.394772 -5.102366 2.607658 2.995103 15.055771 -25.443169 -54.837055 -157.611252 -48.150356 -173.948883 -2.27537 -1.579135 1.941616 -3.748587 6.132392 5.591165 11.054303 9.439532 52.127651 -166.472382 66.850365 177.82373 3.262353 1.032851 0.973511 -32.44743 -15.63758 -5.445927 57.630623 -9.746795 10.694643 -0.513218 -4.236424 1.962728 0.533326 -2.24907 -1.177771 -49.949371 7.017948 8.540359 59.904572 3.01977 -4.414257 0.811355 -1.037012 -2.860631 -1.852862 2.094098 1.058579 
0.002576 0.50775 1.714584 165.397308 -53.346088 168.283783 10.127152 0.485403 -4.619271 -3.481843 -3.48591 1.678885 -3.622897 2.676029 8.421189 7.373219 1.720955 4.40009 -0.932358 2.601741 0.364541 -5.007163 2.161689 3.043166 13.367734 -26.945192 -53.627262 -159.186981 -47.179237 -174.137802 -2.12658 -1.46041 1.835705 -4.131616 6.146959 5.637327 11.944632 9.456595 52.855114 -167.322556 67.93959 178.871445 3.038586 0.951485 0.918837 -32.476002 -15.103209 -5.32719 57.599934 -9.268565 10.113614 -0.708353 -3.89234 1.835715 0.540212 -2.056332 -1.087123 -48.984035 7.0148 8.295795 59.774792 2.657015 -4.993718 0.460096 -1.402909 -2.867706 -1.690864 1.950709 1.01351 
-0.011694 0.510873 1.707715 166.735428 -54.665611 169.274475 9.911325 0.238815 -4.378674 -3.23403 -3.297866 1.997885 -3.720328 2.569374 7.957552 6.881557 1.626285 4.300459 -0.835915 2.3257 0.334987 -4.86567 1.636854 2.979896 11.632494 -28.470488 -52.165962 -161.036621 -45.969856 -174.371201 -1.941584 -1.313518 1.699199 -4.495336 6.119001 5.616819 13.085892 9.10045 53.638718 -168.861755 68.772438 -179.6436 2.746292 0.860317 0.848318 -32.140671 -14.535724 -5.012889 57.194775 -8.713956 9.381457 -0.867905 -3.403161 1.686804 0.564305 -1.834292 -0.971001 -47.743492 6.856229 8.104566 59.710129 2.2115 -5.636101 0.125098 -1.758296 -2.817978 -1.498207 1.769591 0.953475 
-0.02754 0.513066 1.69914 168.620758 -56.853592 170.837036 9.56375 -0.002914 -4.10814 -2.963205 -3.168944 2.346902 -3.898536 2.376601 7.632967 6.284805 1.482098 4.13358 -0.756549 2.060632 0.3029 -4.733954 1.092043 2.792113 10.34735 -29.521294 -50.578331 -162.972992 -44.548523 -174.715897 -1.76256 -1.178313 1.569932 -4.842635 6.065403 5.654786 14.597204 8.218413 54.322815 -170.549606 69.104462 -177.942627 2.44418 0.791662 0.790006 -31.565289 -13.943575 -4.492947 56.458889 -8.125275 8.548968 -1.007646 -2.793138 1.554256 0.626451 -1.6457 -0.871824 -46.384022 6.623099 7.917083 59.811802 1.739995 -6.21468 -0.160229 -2.087093 -2.743918 -1.310128 1.618206 0.908233 
-0.046014 0.515501 1.688598 171.211365 -59.795433 173.092545 9.116491 -0.232448 -3.775514 -2.680983 -3.085988 2.790193 -3.986802 2.162261 7.311848 5.678021 1.330369 3.893025 -0.660488 1.781333 0.272338 -4.505035 0.598805 2.570835 9.07852 -30.40509 -48.904491 -165.167023 -43.031609 -175.159821 -1.559854 -1.024195 1.419341 -5.069181 5.999084 5.604873 16.163774 7.683431 54.859993 -171.876022 69.686424 -176.241943 2.096159 0.719125 0.722367 -30.454834 -13.242899 -3.846495 55.145557 -7.435206 7.650443 -1.111863 -2.16696 1.365714 0.645744 -1.433327 -0.75962 -44.296997 6.232387 7.727934 59.403194 0.927749 -6.564114 -0.4256 -2.370802 -2.61845 -1.094158 1.431209 0.847706 
-0.06549 0.518002 1.679203 174.712494 -62.286537 176.438293 8.655673 -0.447017 -3.470074 -2.468284 -3.042475 3.172356 -3.885007 1.879241 7.024374 5.210077 1.192856 3.686073 -0.589125 1.549753 0.253032 -4.282122 0.232606 2.256663 8.016866 -30.637312 -47.151539 -167.111267 -41.99408 -175.522339 -1.390715 -0.892212 1.284347 -5.187534 5.942419 5.539862 17.357014 7.606266 55.337807 -172.882111 70.619438 -174.599762 1.792434 0.659855 0.664566 -30.01626 -12.368664 -3.452592 54.273041 -6.788955 6.951278 -1.061509 -1.70384 1.172817 0.681857 -1.246139 -0.668854 -42.051769 5.858923 7.476648 58.526165 0.130816 -6.738522 -0.766611 -2.658999 -2.531966 -0.913842 1.257949 0.792655 
-0.086545 0.519769 1.670285 179.483994 -64.205353 -178.864853 8.313156 -0.554619 -3.264801 -2.266422 -3.059808 3.432869 -3.544407 1.482437 6.994633 4.821631 1.036504 3.482393 -0.5538 1.393203 0.244912 -4.105164 -0.013566 1.99014 7.077516 -30.299103 -45.845196 -168.87381 -41.260235 -175.745178 -1.282897 -0.808509 1.178221 -5.132986 5.844721 5.425193 18.11026 7.636291 55.356857 -173.885788 71.339943 -173.159576 1.567256 0.627826 0.619554 -29.481768 -11.627417 -3.125897 53.206848 -6.258502 6.465931 -0.932288 -1.308217 1.04579 0.726845 -1.120018 -0.613343 -39.923923 5.52977 7.327045 58.26133 -0.452098 -6.901261 -1.056427 -2.749256 -2.425267 -0.821941 1.129885 0.755368 
-0.109221 0.520398 1.660825 -175.342987 -65.672287 -173.794891 8.075166 -0.598364 -3.182905 -2.055057 -3.193527 3.621479 -3.179175 0.83837 7.133264 4.539057 0.877438 3.26297 -0.551038 1.307385 0.253144 -3.944169 -0.106474 1.653797 6.186598 -29.443983 -44.912273 -170.673386 -40.734314 -175.827316 -1.221777 -0.767313 1.108457 -4.968761 5.698879 5.35532 18.611719 7.538698 55.120014 -174.707474 71.57679 -172.1091 1.42727 0.610055 0.594176 -29.010736 -10.997547 -2.632365 51.882648 -5.742282 6.042367 -0.781632 -0.883025 1.0188 0.806648 -1.042162 -0.585697 -37.557243 5.257937 7.125132 58.359432 -0.851569 -7.03974 -1.360014 -2.678102 -2.344954 -0.81955 1.055038 0.741405 
-0.131149 0.517488 1.650818 -169.942841 -66.302666 -168.582535 7.937222 -0.638527 -3.233429 -1.849997 -3.419715 3.782728 -2.962063 -0.045728 7.466989 4.33402 0.718714 3.090253 -0.574265 1.292976 0.263921 -3.825464 -0.077713 1.248088 5.343661 -27.992947 -44.609547 -172.354477 -40.474266 -175.763458 -1.188654 -0.749001 1.075014 -4.7963 5.5973 5.219027 19.090147 7.29953 54.527336 -174.867233 70.691277 -171.770889 1.368123 0.593229 0.583794 -28.912882 -10.589187 -2.073014 50.515335 -5.252867 5.783949 -0.694598 -0.422986 1.055745 0.924412 -0.999321 -0.574437 -35.355679 5.041662 6.989852 59.041515 -1.047585 -7.222351 -1.70309 -2.50448 -2.326041 -0.862809 1.018778 0.746989 
-0.153246 0.512654 1.638673 -166.178589 -66.59111 -165.199844 7.862282 -0.625093 -3.424605 -1.664836 -3.791909 3.856997 -2.987713 -1.239693 7.935427 4.136863 0.49936 2.953118 -0.637033 1.414916 0.309316 -3.74133 0.141278 0.859718 4.958533 -25.465872 -44.693863 -174.433548 -40.586613 -175.532639 -1.21551 -0.794976 1.087404 -4.565291 5.449332 5.089273 19.591887 6.975047 53.390205 -174.597046 68.971069 -171.985336 1.453971 0.600348 0.614975 -28.734125 -10.198078 -1.560683 48.997112 -4.728286 5.765141 -0.660489 0.088901 1.228142 1.085976 -0.997353 -0.592631 -33.177582 4.860633 6.851392 60.091145 -0.954233 -7.43025 -2.069601 -2.258075 -2.425009 -0.990649 1.063654 0.787655 
